# xmcd
#
# Track frame offsets:
#	150
#	20552
#	40610
#	61620
#	83167
#	108632
#	126585
#	142025
#	156487
#	178894
#	200446
#	217904
#	238404
#	261610
#	289786
#	313012
#	327063
#
# Disc length: 4609 seconds
#
# Revision: 1
# Processed by: cddbd v1.5.2PL0 Copyright (c) Steve Scherf et al.
# Submitted via: audiograbber 1.83.01
#
DISCID=0811ff11
DTITLE=—борник - Romantic Collection - Love Blues  CD2
DYEAR=1900
DGENRE=Blues
TTITLE0=Billy Boy Arnold - Whiskey, Beer and Reefer
TTITLE1=The Notting Hillbilles - Your Own Sweet Way
TTITLE2=The Robert Cray Band - Never Mattered Much
TTITLE3=Lucky Peterson - Who's Been Talkin
TTITLE4=Yhe Mighty Houserockers - Play The Blues For You
TTITLE5=John Lee Hooker - We'll Meet Again
TTITLE6=B.B.King - Blues Boys Tune
TTITLE7=Santana - Black Magic Woman
TTITLE8=Stivie Ray Vaughan - Dirty Pool
TTITLE9=John Lee Hooker - Things Gonna Change
TTITLE10=Ray Charles - Strong Love Affair
TTITLE11=Luther Allison - Nobody But You
TTITLE12=Eric Burdon And Jimmy Whitherspoon - The Time Has Come
TTITLE13=Byther Smith - Play The Blues In Paris
TTITLE14=Magic Slim - Born In Missouri
TTITLE15=Taj Mahal Fiat - Here In The Dark
TTITLE16=Gary Moore - Still Got The Blues
EXTD=
EXTT0=
EXTT1=
EXTT2=
EXTT3=
EXTT4=
EXTT5=
EXTT6=
EXTT7=
EXTT8=
EXTT9=
EXTT10=
EXTT11=
EXTT12=
EXTT13=
EXTT14=
EXTT15=
EXTT16=
PLAYORDER=
